<mxfile host="app.diagrams.net" modified="2022-12-03T14:54:40.274Z" agent="5.0 (Macintosh)" etag="HkfSwEtE_WoOnQWyYyXx" version="20.5.3" type="github" pages="2">
  <diagram id="_7k3OPe7q1mkyan6Cvg_" name="Page-1">
    <mxGraphModel dx="2045" dy="1035" grid="0" gridSize="10" guides="1" tooltips="1" connect="1" arrows="1" fold="1" page="1" pageScale="1" pageWidth="827" pageHeight="869" background="#745e9b" math="0" shadow="0">
      <root>
        <mxCell id="0" />
        <mxCell id="1" parent="0" />
        <mxCell id="sAqDMg4jpO0Pr-GMLGJR-1" value="" style="rounded=0;whiteSpace=wrap;html=1;labelBackgroundColor=none;fontSize=14;fillColor=#745E9B;" vertex="1" parent="1">
          <mxGeometry x="120" y="13" width="610" height="60" as="geometry" />
        </mxCell>
        <mxCell id="sAqDMg4jpO0Pr-GMLGJR-2" value="" style="rounded=0;whiteSpace=wrap;html=1;labelBackgroundColor=none;fontSize=14;fillColor=#fad481;shadow=1;" vertex="1" parent="1">
          <mxGeometry x="1" y="87" width="822" height="36" as="geometry" />
        </mxCell>
        <mxCell id="sAqDMg4jpO0Pr-GMLGJR-4" value="&lt;h1 style=&quot;font-size: 30px;&quot;&gt;&lt;font style=&quot;font-size: 30px;&quot; face=&quot;Tahoma&quot;&gt;REHEARSAL STUDIO NAME&lt;/font&gt;&lt;/h1&gt;" style="text;html=1;strokeColor=none;fillColor=none;align=center;verticalAlign=middle;whiteSpace=wrap;rounded=0;labelBackgroundColor=none;fontSize=14;fontColor=#FAD481;" vertex="1" parent="1">
          <mxGeometry x="201" y="28" width="448" height="30" as="geometry" />
        </mxCell>
        <mxCell id="sAqDMg4jpO0Pr-GMLGJR-5" value="LINK" style="text;html=1;strokeColor=none;fillColor=none;align=center;verticalAlign=middle;whiteSpace=wrap;rounded=0;labelBackgroundColor=none;fontFamily=Tahoma;fontSize=20;fontColor=#000000;" vertex="1" parent="1">
          <mxGeometry x="384" y="90" width="60" height="30" as="geometry" />
        </mxCell>
        <mxCell id="sAqDMg4jpO0Pr-GMLGJR-6" value="LINK" style="text;html=1;strokeColor=none;fillColor=none;align=center;verticalAlign=middle;whiteSpace=wrap;rounded=0;labelBackgroundColor=none;fontFamily=Tahoma;fontSize=20;fontColor=#000000;" vertex="1" parent="1">
          <mxGeometry x="583" y="90" width="60" height="30" as="geometry" />
        </mxCell>
        <mxCell id="sAqDMg4jpO0Pr-GMLGJR-7" value="LINK" style="text;html=1;strokeColor=none;fillColor=none;align=center;verticalAlign=middle;whiteSpace=wrap;rounded=0;labelBackgroundColor=none;fontFamily=Tahoma;fontSize=20;fontColor=#000000;" vertex="1" parent="1">
          <mxGeometry x="171" y="90" width="60" height="30" as="geometry" />
        </mxCell>
        <mxCell id="sAqDMg4jpO0Pr-GMLGJR-11" value="" style="group;shadow=1;" vertex="1" connectable="0" parent="1">
          <mxGeometry x="205" y="145" width="417" height="143" as="geometry" />
        </mxCell>
        <mxCell id="sAqDMg4jpO0Pr-GMLGJR-8" value="" style="rounded=0;whiteSpace=wrap;html=1;labelBackgroundColor=none;fontFamily=Tahoma;fontSize=20;shadow=1;" vertex="1" parent="sAqDMg4jpO0Pr-GMLGJR-11">
          <mxGeometry width="417" height="143" as="geometry" />
        </mxCell>
        <mxCell id="sAqDMg4jpO0Pr-GMLGJR-9" value="" style="endArrow=none;html=1;rounded=0;fontFamily=Tahoma;fontSize=20;fontColor=#000000;" edge="1" parent="sAqDMg4jpO0Pr-GMLGJR-11">
          <mxGeometry width="50" height="50" relative="1" as="geometry">
            <mxPoint y="137" as="sourcePoint" />
            <mxPoint x="410" as="targetPoint" />
          </mxGeometry>
        </mxCell>
        <mxCell id="sAqDMg4jpO0Pr-GMLGJR-10" value="" style="endArrow=none;html=1;rounded=0;fontFamily=Tahoma;fontSize=20;fontColor=#000000;" edge="1" parent="sAqDMg4jpO0Pr-GMLGJR-11">
          <mxGeometry width="50" height="50" relative="1" as="geometry">
            <mxPoint x="417" y="140" as="sourcePoint" />
            <mxPoint x="5" as="targetPoint" />
          </mxGeometry>
        </mxCell>
        <mxCell id="sAqDMg4jpO0Pr-GMLGJR-16" value="Image" style="text;html=1;strokeColor=none;fillColor=none;align=center;verticalAlign=middle;whiteSpace=wrap;rounded=0;shadow=1;labelBackgroundColor=none;fontFamily=Tahoma;fontSize=8;fontColor=#000000;" vertex="1" parent="sAqDMg4jpO0Pr-GMLGJR-11">
          <mxGeometry x="179" y="113" width="60" height="30" as="geometry" />
        </mxCell>
        <mxCell id="sAqDMg4jpO0Pr-GMLGJR-17" value="&lt;h1 align=&quot;center&quot;&gt;&lt;font style=&quot;font-size: 30px;&quot;&gt;Heading&lt;/font&gt;&lt;/h1&gt;&lt;p style=&quot;font-size: 16px;&quot; align=&quot;center&quot;&gt;Lorem ipsum dolor sit amet, consectetur adipisicing elit, sed do eiusmod tempor incididunt ut labore et dolore magna aliqua.&lt;/p&gt;" style="text;html=1;strokeColor=#5C3C8C;fillColor=#a7c7c5;spacing=5;spacingTop=-4;whiteSpace=wrap;overflow=hidden;rounded=0;shadow=1;labelBackgroundColor=none;fontFamily=Tahoma;fontSize=8;labelBorderColor=none;strokeWidth=5;sketch=0;" vertex="1" parent="1">
          <mxGeometry x="205" y="333" width="421" height="153" as="geometry" />
        </mxCell>
      </root>
    </mxGraphModel>
  </diagram>
  <diagram id="Q9g4dnccZeSaD994zSO4" name="Page-2">
    <mxGraphModel dx="2045" dy="1035" grid="0" gridSize="10" guides="1" tooltips="1" connect="1" arrows="1" fold="1" page="1" pageScale="1" pageWidth="827" pageHeight="869" background="#745E9B" math="0" shadow="0">
      <root>
        <mxCell id="0" />
        <mxCell id="1" parent="0" />
        <mxCell id="CIoJAq4OfzgTdjivAXvc-13" value="" style="rounded=0;whiteSpace=wrap;html=1;labelBackgroundColor=none;fontSize=14;fillColor=#745E9B;" vertex="1" parent="1">
          <mxGeometry x="121" y="18" width="610" height="60" as="geometry" />
        </mxCell>
        <mxCell id="CIoJAq4OfzgTdjivAXvc-14" value="" style="rounded=0;whiteSpace=wrap;html=1;labelBackgroundColor=none;fontSize=14;fillColor=#fad481;shadow=1;" vertex="1" parent="1">
          <mxGeometry x="2" y="92" width="822" height="36" as="geometry" />
        </mxCell>
        <mxCell id="CIoJAq4OfzgTdjivAXvc-15" value="&lt;h1 style=&quot;font-size: 30px;&quot;&gt;&lt;font style=&quot;font-size: 30px;&quot; face=&quot;Tahoma&quot;&gt;REHEARSAL STUDIO NAME&lt;/font&gt;&lt;/h1&gt;" style="text;html=1;strokeColor=none;fillColor=none;align=center;verticalAlign=middle;whiteSpace=wrap;rounded=0;labelBackgroundColor=none;fontSize=14;fontColor=#FAD481;" vertex="1" parent="1">
          <mxGeometry x="202" y="33" width="448" height="30" as="geometry" />
        </mxCell>
        <mxCell id="CIoJAq4OfzgTdjivAXvc-16" value="LINK" style="text;html=1;strokeColor=none;fillColor=none;align=center;verticalAlign=middle;whiteSpace=wrap;rounded=0;labelBackgroundColor=none;fontFamily=Tahoma;fontSize=20;fontColor=#000000;" vertex="1" parent="1">
          <mxGeometry x="385" y="95" width="60" height="30" as="geometry" />
        </mxCell>
        <mxCell id="CIoJAq4OfzgTdjivAXvc-17" value="LINK" style="text;html=1;strokeColor=none;fillColor=none;align=center;verticalAlign=middle;whiteSpace=wrap;rounded=0;labelBackgroundColor=none;fontFamily=Tahoma;fontSize=20;fontColor=#000000;" vertex="1" parent="1">
          <mxGeometry x="584" y="95" width="60" height="30" as="geometry" />
        </mxCell>
        <mxCell id="CIoJAq4OfzgTdjivAXvc-18" value="LINK" style="text;html=1;strokeColor=none;fillColor=none;align=center;verticalAlign=middle;whiteSpace=wrap;rounded=0;labelBackgroundColor=none;fontFamily=Tahoma;fontSize=20;fontColor=#000000;" vertex="1" parent="1">
          <mxGeometry x="172" y="95" width="60" height="30" as="geometry" />
        </mxCell>
        <mxCell id="CIoJAq4OfzgTdjivAXvc-25" value="" style="rounded=0;whiteSpace=wrap;html=1;shadow=1;labelBackgroundColor=none;labelBorderColor=none;sketch=0;strokeColor=#5C3C8C;strokeWidth=5;fontFamily=Tahoma;fontSize=30;fontColor=#000000;fillColor=#a7c7c5;" vertex="1" parent="1">
          <mxGeometry x="210.25" y="199" width="409.5" height="498" as="geometry" />
        </mxCell>
        <mxCell id="CIoJAq4OfzgTdjivAXvc-26" value="" style="rounded=0;whiteSpace=wrap;html=1;shadow=0;labelBackgroundColor=none;labelBorderColor=none;sketch=0;strokeWidth=5;fontFamily=Tahoma;fontSize=30;strokeColor=none;" vertex="1" parent="1">
          <mxGeometry x="342" y="242" width="210" height="35" as="geometry" />
        </mxCell>
        <mxCell id="CIoJAq4OfzgTdjivAXvc-27" value="" style="rounded=0;whiteSpace=wrap;html=1;shadow=0;labelBackgroundColor=none;labelBorderColor=none;sketch=0;strokeWidth=5;fontFamily=Tahoma;fontSize=30;strokeColor=none;" vertex="1" parent="1">
          <mxGeometry x="342" y="309" width="210" height="35" as="geometry" />
        </mxCell>
        <mxCell id="CIoJAq4OfzgTdjivAXvc-28" value="" style="rounded=0;whiteSpace=wrap;html=1;shadow=0;labelBackgroundColor=none;labelBorderColor=none;sketch=0;strokeWidth=5;fontFamily=Tahoma;fontSize=30;strokeColor=none;" vertex="1" parent="1">
          <mxGeometry x="342" y="504" width="210" height="35" as="geometry" />
        </mxCell>
        <mxCell id="CIoJAq4OfzgTdjivAXvc-29" value="" style="rounded=0;whiteSpace=wrap;html=1;shadow=0;labelBackgroundColor=none;labelBorderColor=none;sketch=0;strokeWidth=5;fontFamily=Tahoma;fontSize=30;strokeColor=none;" vertex="1" parent="1">
          <mxGeometry x="387" y="374" width="120" height="100" as="geometry" />
        </mxCell>
        <mxCell id="CIoJAq4OfzgTdjivAXvc-30" value="" style="rounded=0;whiteSpace=wrap;html=1;shadow=0;labelBackgroundColor=none;labelBorderColor=none;sketch=0;strokeWidth=5;fontFamily=Tahoma;fontSize=30;strokeColor=none;" vertex="1" parent="1">
          <mxGeometry x="342" y="569" width="208" height="35" as="geometry" />
        </mxCell>
        <mxCell id="CIoJAq4OfzgTdjivAXvc-32" value="Field:" style="text;html=1;strokeColor=none;fillColor=none;align=center;verticalAlign=middle;whiteSpace=wrap;rounded=0;shadow=0;labelBackgroundColor=none;labelBorderColor=none;sketch=0;strokeWidth=5;fontFamily=Tahoma;fontSize=18;fontColor=#000000;" vertex="1" parent="1">
          <mxGeometry x="239" y="242" width="60" height="30" as="geometry" />
        </mxCell>
        <mxCell id="CIoJAq4OfzgTdjivAXvc-33" value="Field:" style="text;html=1;strokeColor=none;fillColor=none;align=center;verticalAlign=middle;whiteSpace=wrap;rounded=0;shadow=0;labelBackgroundColor=none;labelBorderColor=none;sketch=0;strokeWidth=5;fontFamily=Tahoma;fontSize=18;fontColor=#000000;" vertex="1" parent="1">
          <mxGeometry x="239" y="309" width="60" height="30" as="geometry" />
        </mxCell>
        <mxCell id="CIoJAq4OfzgTdjivAXvc-34" value="Field:" style="text;html=1;strokeColor=none;fillColor=none;align=center;verticalAlign=middle;whiteSpace=wrap;rounded=0;shadow=0;labelBackgroundColor=none;labelBorderColor=none;sketch=0;strokeWidth=5;fontFamily=Tahoma;fontSize=18;fontColor=#000000;" vertex="1" parent="1">
          <mxGeometry x="239" y="409" width="60" height="30" as="geometry" />
        </mxCell>
        <mxCell id="CIoJAq4OfzgTdjivAXvc-35" value="Field:" style="text;html=1;strokeColor=none;fillColor=none;align=center;verticalAlign=middle;whiteSpace=wrap;rounded=0;shadow=0;labelBackgroundColor=none;labelBorderColor=none;sketch=0;strokeWidth=5;fontFamily=Tahoma;fontSize=18;fontColor=#000000;" vertex="1" parent="1">
          <mxGeometry x="239" y="509" width="60" height="30" as="geometry" />
        </mxCell>
        <mxCell id="CIoJAq4OfzgTdjivAXvc-36" value="Field:" style="text;html=1;strokeColor=none;fillColor=none;align=center;verticalAlign=middle;whiteSpace=wrap;rounded=0;shadow=0;labelBackgroundColor=none;labelBorderColor=none;sketch=0;strokeWidth=5;fontFamily=Tahoma;fontSize=18;fontColor=#000000;" vertex="1" parent="1">
          <mxGeometry x="239" y="571.5" width="60" height="30" as="geometry" />
        </mxCell>
        <mxCell id="CIoJAq4OfzgTdjivAXvc-37" value="" style="rounded=0;whiteSpace=wrap;html=1;shadow=0;labelBackgroundColor=none;labelBorderColor=none;sketch=0;strokeColor=#5C3C8C;strokeWidth=5;fontFamily=Tahoma;fontSize=18;fontColor=#000000;fillColor=#a7c7c5;" vertex="1" parent="1">
          <mxGeometry x="364" y="634" width="102" height="37" as="geometry" />
        </mxCell>
        <mxCell id="CIoJAq4OfzgTdjivAXvc-38" value="Submit" style="text;html=1;strokeColor=none;fillColor=none;align=center;verticalAlign=middle;whiteSpace=wrap;rounded=0;shadow=0;labelBackgroundColor=none;labelBorderColor=none;sketch=0;strokeWidth=5;fontFamily=Tahoma;fontSize=18;fontColor=#000000;" vertex="1" parent="1">
          <mxGeometry x="384" y="634" width="60" height="30" as="geometry" />
        </mxCell>
        <mxCell id="CIoJAq4OfzgTdjivAXvc-39" value="&lt;b&gt;&lt;font style=&quot;font-size: 26px;&quot;&gt;FORM&lt;/font&gt;&lt;/b&gt;" style="text;html=1;strokeColor=none;fillColor=none;align=center;verticalAlign=middle;whiteSpace=wrap;rounded=0;labelBackgroundColor=none;fontSize=14;fontColor=#FAD481;labelBorderColor=default;" vertex="1" parent="1">
          <mxGeometry x="189" y="153" width="448" height="30" as="geometry" />
        </mxCell>
      </root>
    </mxGraphModel>
  </diagram>
</mxfile>
